<svg id="checkmark-circle" xmlns="http://www.w3.org/2000/svg" width="79.209" height="79.209" viewBox="0 0 79.209 79.209">
  <path id="Shape" d="M39.6,79.209A39.6,39.6,0,0,1,11.6,11.6,39.606,39.606,0,0,1,67.611,67.611,39.346,39.346,0,0,1,39.6,79.209Zm0-75.04A35.435,35.435,0,1,0,75.04,39.6,35.476,35.476,0,0,0,39.6,4.169Z" transform="translate(0 0)" fill="#56ccc2"/>
  <path id="Path" d="M14.592,33.348a2.094,2.094,0,0,1-1.476-.609L.61,20.233a2.084,2.084,0,0,1,2.947-2.947L14.588,28.316,42.294.61a2.084,2.084,0,1,1,2.947,2.947L16.06,32.739a2.076,2.076,0,0,1-1.476.609Z" transform="translate(16.674 22.932)" fill="#56ccc2"/>
</svg>
