<svg xmlns="http://www.w3.org/2000/svg" width="14.539" height="19.13" viewBox="0 0 14.539 19.13"><defs><style>.a{fill:#314e65;}</style></defs><g transform="translate(0 0)"><path class="a" d="M333.813,20.83h4.3a.288.288,0,0,0,.287-.287,1.335,1.335,0,0,0-.478-1.019l-3.687-3.07a1.789,1.789,0,0,0-.985-.354.353.353,0,0,0-.354.354v3.467A.915.915,0,0,0,333.813,20.83Z" transform="translate(-323.866 -16.095)"/><path class="a" d="M151.8,19.826V16H145.53A1.535,1.535,0,0,0,144,17.53V33.6a1.535,1.535,0,0,0,1.53,1.53h11.478a1.535,1.535,0,0,0,1.53-1.53V21.978h-4.591A2.155,2.155,0,0,1,151.8,19.826Z" transform="translate(-144 -16)"/></g></svg>