<svg width="20" height="20" viewBox="0 0 20 20" fill="none" xmlns="http://www.w3.org/2000/svg">
<path fill-rule="evenodd" clip-rule="evenodd" d="M5.4073 6.00317V9.37703L7.09739 10.3872L10.043 10.5362V10.5358L11.6804 10.4255V12.7115L10.0421 12.964V12.9676L8.16733 12.7031V11.8942L5.40651 11.5727V12.9735L7.0966 14.2892L10.0422 15.0002V14.9996L12.8033 14.3369L14.5207 12.9921V9.57073L12.8033 8.56915L10.0421 8.46338V8.46378L8.16812 8.56324V6.30537L10.0424 6.03563V6.03808L11.6806 6.27149V7.04307L14.5209 7.3478V5.96027L12.8035 4.63109L10.043 4.00014V4L10.0427 4.00007L10.0424 4V4.00014L7.09739 4.68427L5.4073 6.00317ZM0.712032 6.29633L0 7.06488V9.24854L0.712032 9.88493L2.54985 9.98049V11.5318L1.14118 11.3041V10.7978L0 10.6596V11.5786L0.712032 12.3532L3.13294 12.9632L4.28566 12.4366V9.44373L3.13294 8.66908L1.14118 8.74634V7.34953L2.54985 7.14011V7.66264L4.28566 7.46949V6.25567L3.13294 5.71687L0.712032 6.29633ZM15.7144 6.25899L16.8633 5.71687L19.3069 6.3132L20 7.07819V7.96767L18.894 7.84118V7.3613L17.4238 7.13843V11.5296L18.894 11.2907V9.90324L18.0048 9.94942V8.71459L20 8.7949V11.5657L19.3069 12.3347L16.8465 12.9632L15.7144 12.4371V6.25899Z" fill="#828282"/>
</svg>
