<svg xmlns="http://www.w3.org/2000/svg" width="17.583" height="17.582" viewBox="0 0 17.583 17.582"><defs><style>.a{fill:#314e65;}</style></defs><path class="a" d="M80.933,77.8a14.769,14.769,0,0,0-3.085-2.064c-.925-.444-1.263-.435-1.918.037-.545.394-.9.76-1.524.623a9.092,9.092,0,0,1-3.062-2.266,9.027,9.027,0,0,1-2.266-3.062c-.133-.632.233-.98.623-1.524.471-.655.485-.993.037-1.918a14.477,14.477,0,0,0-2.064-3.085c-.673-.673-.824-.526-1.195-.394a6.8,6.8,0,0,0-1.094.581,3.3,3.3,0,0,0-1.314,1.387c-.261.563-.563,1.611.975,4.348a24.264,24.264,0,0,0,4.266,5.69l0,0,0,0a24.359,24.359,0,0,0,5.69,4.266c2.737,1.538,3.785,1.236,4.348.975a3.244,3.244,0,0,0,1.387-1.314A6.8,6.8,0,0,0,81.326,79C81.459,78.626,81.61,78.475,80.933,77.8Z" transform="translate(-63.858 -64.035)"/></svg>