<svg xmlns="http://www.w3.org/2000/svg" width="28.011" height="22" viewBox="0 0 28.011 22">
  <path id="_ionicons_svg_ios-undo" d="M60,99.65a13.283,13.283,0,0,0-3.551-9.92c-2.525-2.544-5.745-3.857-10.214-4.094a.253.253,0,0,1-.238-.25v-5.17A.252.252,0,0,0,45.609,80l-13.5,8.889a.251.251,0,0,0,0,.419l13.5,8.889A.248.248,0,0,0,46,97.988v-5.1a.25.25,0,0,1,.263-.25,14.7,14.7,0,0,1,6.07,1.45,15.393,15.393,0,0,1,5.907,5.22,13.385,13.385,0,0,1,1.338,2.482.277.277,0,0,0,.256.175h.181C60,101.232,60,100.294,60,99.65Z" transform="translate(-32 -79.964)" fill="#314e65"/>
</svg>
