<svg xmlns="http://www.w3.org/2000/svg" width="19.676" height="19.676" viewBox="0 0 19.676 19.676"><defs><style>.a{fill:#314e65;}</style></defs><path class="a" d="M65.307,58.823a6.153,6.153,0,0,0,.05-.984c0-.344-.05-.639-.05-.984l2.113-1.623a.452.452,0,0,0,.1-.639L65.508,51.2a.49.49,0,0,0-.6-.2l-2.516.984A7.323,7.323,0,0,0,60.678,51l-.352-2.607a.539.539,0,0,0-.5-.393H55.8a.539.539,0,0,0-.5.393L54.892,51a8.52,8.52,0,0,0-1.711.984L50.666,51a.471.471,0,0,0-.6.2L48.05,54.593a.594.594,0,0,0,.1.639l2.163,1.623c0,.344-.05.639-.05.984s.05.639.05.984L48.2,60.446a.452.452,0,0,0-.1.639l2.012,3.394a.49.49,0,0,0,.6.2l2.516-.984a7.322,7.322,0,0,0,1.71.984l.4,2.607a.488.488,0,0,0,.5.393h4.025a.539.539,0,0,0,.5-.393l.4-2.607a8.514,8.514,0,0,0,1.71-.984l2.516.984a.471.471,0,0,0,.6-.2l2.012-3.394a.593.593,0,0,0-.1-.639l-2.214-1.623Zm-7.5,2.459a3.444,3.444,0,1,1,3.522-3.443A3.461,3.461,0,0,1,57.811,61.282Z" transform="translate(-47.998 -48.001)"/></svg>