<svg width="8" height="8" viewBox="0 0 8 8" fill="none" xmlns="http://www.w3.org/2000/svg">
<path d="M6.97513 4.39C6.99013 4.265 7.00013 4.135 7.00013 4C7.00013 3.865 6.99013 3.735 6.97013 3.61L7.81513 2.95C7.89013 2.89 7.91013 2.78 7.86513 2.695L7.06513 1.31C7.01513 1.22 6.91013 1.19 6.82013 1.22L5.82513 1.62C5.61513 1.46 5.39513 1.33 5.15013 1.23L5.00013 0.17C4.98513 0.07 4.90013 0 4.80013 0H3.20013C3.10013 0 3.02013 0.07 3.00513 0.17L2.85513 1.23C2.61013 1.33 2.38513 1.465 2.18013 1.62L1.18513 1.22C1.09513 1.185 0.990126 1.22 0.940126 1.31L0.140126 2.695C0.0901258 2.785 0.110126 2.89 0.190126 2.95L1.03513 3.61C1.01513 3.735 1.00013 3.87 1.00013 4C1.00013 4.13 1.01013 4.265 1.03013 4.39L0.185126 5.05C0.110126 5.11 0.0901258 5.22 0.135126 5.305L0.935126 6.69C0.985126 6.78 1.09013 6.81 1.18013 6.78L2.17513 6.38C2.38513 6.54 2.60513 6.67 2.85013 6.77L3.00013 7.83C3.02013 7.93 3.10013 8 3.20013 8H4.80013C4.90013 8 4.98513 7.93 4.99513 7.83L5.14513 6.77C5.39013 6.67 5.61513 6.535 5.82013 6.38L6.81513 6.78C6.90513 6.815 7.01013 6.78 7.06013 6.69L7.86013 5.305C7.91013 5.215 7.89013 5.11 7.81013 5.05L6.97513 4.39ZM4.00013 5.5C3.17513 5.5 2.50013 4.825 2.50013 4C2.50013 3.175 3.17513 2.5 4.00013 2.5C4.82513 2.5 5.50013 3.175 5.50013 4C5.50013 4.825 4.82513 5.5 4.00013 5.5Z" fill="#BDBDBD"/>
</svg>
