<svg xmlns="http://www.w3.org/2000/svg" width="40" height="26.678" viewBox="0 0 40 26.678"><defs><style>.a{fill:#314e65;}</style></defs><path class="a" d="M137.509,160.534a1.816,1.816,0,0,0-.014,2.556l8.447,8.461h-32.15a1.806,1.806,0,0,0,0,3.612h32.136l-8.447,8.461a1.829,1.829,0,0,0,.014,2.556,1.8,1.8,0,0,0,2.543-.014l11.448-11.532a2.028,2.028,0,0,0,.375-.57,1.724,1.724,0,0,0,.139-.695,1.811,1.811,0,0,0-.514-1.264l-11.448-11.532A1.77,1.77,0,0,0,137.509,160.534Z" transform="translate(-112 -160.023)"/></svg>