<svg xmlns="http://www.w3.org/2000/svg" width="30.095" height="21.496" viewBox="0 0 30.095 21.496"><defs><style>.a{fill:#3a7db2;}</style></defs><path class="a" d="M62.095,98.15A2.156,2.156,0,0,0,59.945,96H34.15A2.156,2.156,0,0,0,32,98.15v3.224H62.095ZM32,115.347a2.156,2.156,0,0,0,2.15,2.15h25.8a2.156,2.156,0,0,0,2.15-2.15V104.6H32Zm9.539-3.224H52.556a.94.94,0,0,1,0,1.881H41.539a.94.94,0,1,1,0-1.881Zm-4.837,0h.806a.94.94,0,0,1,0,1.881H36.7a.94.94,0,0,1,0-1.881Z" transform="translate(-32 -96)"/></svg>