<svg xmlns="http://www.w3.org/2000/svg" width="33.35" height="23" viewBox="0 0 33.35 23"><defs><style>.a{fill:#fff;}.b{fill:#f79f1a;}.c{fill:#059bbf;}.d{fill:#202121;opacity:0.15;}</style></defs><g transform="translate(0 -79.451)"><path class="a" d="M33.35,100.479a1.971,1.971,0,0,1-1.971,1.972H1.971A1.971,1.971,0,0,1,0,100.479V81.422a1.971,1.971,0,0,1,1.971-1.971H31.379a1.971,1.971,0,0,1,1.971,1.971v19.057Z" transform="translate(0 0)"/><path class="b" d="M35.917,194.181l-.783-3.757a.934.934,0,0,0-1.01-.693h-3.59l-.032.172A7.384,7.384,0,0,1,35.917,194.181Z" transform="translate(-28.515 -103.098)"/><g transform="translate(0 79.451)"><path class="c" d="M187.268,190.892h-2.32l-1.449,8.5h2.316Z" transform="translate(-171.546 -183.633)"/><path class="c" d="M70.364,199.469l3.648-8.488H71.557l-2.27,5.8-.242-.876a9.071,9.071,0,0,0-3.209-3.524l2.075,7.091Z" transform="translate(-61.548 -183.716)"/><path class="c" d="M247.972,194.527c.009-.965-.611-1.7-1.947-2.31-.812-.393-1.306-.655-1.3-1.053,0-.352.419-.73,1.327-.73a4.278,4.278,0,0,1,1.734.326l.21.1.314-1.842a6.008,6.008,0,0,0-2.078-.355c-2.29,0-3.9,1.152-3.917,2.805-.015,1.222,1.152,1.9,2.031,2.31.9.415,1.2.681,1.2,1.053-.006.569-.719.829-1.385.829a4.862,4.862,0,0,1-2.183-.446l-.3-.136-.326,1.905a7.312,7.312,0,0,0,2.581.452C246.372,197.432,247.955,196.294,247.972,194.527Z" transform="translate(-225.635 -181.546)"/><path class="c" d="M343.306,198.246l2.968,0c.07.3.282,1.274.282,1.274h2.15l-1.877-8.5h-1.789a1.153,1.153,0,0,0-1.213.7l-3.442,7.792h2.436S343.216,198.476,343.306,198.246Zm1.589-4.117c-.011.023.192-.492.309-.812l.157.733s.442,2.031.535,2.456h-1.923C344.165,196.017,344.895,194.129,344.895,194.129Z" transform="translate(-318.213 -183.759)"/><path class="c" d="M31.379,79.451H1.971A1.971,1.971,0,0,0,0,81.422v2.046H33.35V81.422A1.971,1.971,0,0,0,31.379,79.451Z" transform="translate(0 -79.451)"/></g><path class="b" d="M31.379,374.889H1.971A1.971,1.971,0,0,1,0,372.917v-2.046H33.35v2.046A1.971,1.971,0,0,1,31.379,374.889Z" transform="translate(0 -272.438)"/><path class="d" d="M1.4,100.479V81.422a1.971,1.971,0,0,1,1.972-1.971h-1.4A1.971,1.971,0,0,0,0,81.422v19.057a1.971,1.971,0,0,0,1.971,1.972h1.4A1.972,1.972,0,0,1,1.4,100.479Z" transform="translate(0 0)"/></g></svg>