<svg xmlns="http://www.w3.org/2000/svg" width="23.819" height="23.819" viewBox="0 0 23.819 23.819">
  <g id="Group_1139" data-name="Group 1139" transform="translate(-1131.94 -706.541)">
    <path id="_ionicons_svg_md-volume-high" d="M64,70.332v6.332h4.222L73.5,82.183V64.814l-5.277,5.518ZM78.248,73.5a4.932,4.932,0,0,0-2.638-4.4v8.739A4.788,4.788,0,0,0,78.248,73.5ZM75.609,64v2.225a7.651,7.651,0,0,1,0,14.547V83a9.8,9.8,0,0,0,0-19Z" transform="translate(1069.893 645.851)" fill="#314e65"/>
    <path id="Path_245" data-name="Path 245" d="M315.218,709.851v25.685" transform="translate(1431.978 -15.463) rotate(45)" fill="none" stroke="#fbfbfb" stroke-linecap="round" stroke-width="4"/>
    <path id="Path_246" data-name="Path 246" d="M315.218,709.851v25.685" transform="translate(1431.978 -15.463) rotate(45)" fill="none" stroke="#2e4a60" stroke-linecap="round" stroke-width="3"/>
  </g>
</svg>
